<?xml version="1.0" standalone="no"?>
<!DOCTYPE svg PUBLIC "-//W3C//DTD SVG 20010904//EN"
 "http://www.w3.org/TR/2001/REC-SVG-20010904/DTD/svg10.dtd">
<svg version="1.0" xmlns="http://www.w3.org/2000/svg"
 width="640.000000pt" height="640.000000pt" viewBox="0 0 640.000000 640.000000"
 preserveAspectRatio="xMidYMid meet">

<g transform="translate(0.000000,640.000000) scale(0.100000,-0.100000)"
fill="#000000" stroke="none">
<path d="M2215 4958 c-3 -7 -4 -305 -3 -663 l3 -650 53 102 c47 92 131 207
187 256 11 9 53 39 92 65 l73 47 0 238 0 238 333 -3 c319 -3 334 -4 378 -26
26 -12 61 -38 78 -57 l31 -35 6 26 c5 19 -6 51 -42 126 -45 94 -48 106 -48
182 -1 45 2 97 7 117 7 35 6 37 -24 43 -17 3 -276 6 -576 6 -426 0 -545 -3
-548 -12z"/>
<path d="M3944 4376 c-39 -47 -76 -98 -174 -246 -99 -148 -170 -225 -263 -287
l-69 -46 30 -13 c38 -16 109 -80 127 -114 45 -87 23 -212 -48 -277 -96 -88
-121 -93 -515 -93 l-324 0 -26 -28 c-15 -15 -97 -100 -182 -188 l-155 -159
538 -3 c509 -2 543 -1 639 18 124 26 198 55 288 115 158 105 240 264 240 464
0 53 -7 122 -15 154 -19 72 -64 162 -103 204 -31 34 -140 108 -173 118 -28 9
-24 16 33 55 77 52 124 118 152 213 25 84 38 147 32 147 -2 0 -17 -15 -32 -34z"/>
<path d="M1353 2593 c-10 -3 -13 -72 -13 -294 l0 -289 50 0 50 0 0 295 0 295
-37 -1 c-21 0 -44 -3 -50 -6z"/>
<path d="M5142 2593 l-42 -4 0 -290 1 -289 55 0 54 0 0 64 c0 60 2 66 31 90
38 32 38 32 121 -76 l60 -78 59 0 c33 0 59 4 59 8 0 5 -12 19 -26 33 -14 13
-40 44 -57 69 -17 25 -49 66 -70 92 l-40 48 87 82 c47 45 86 85 86 90 0 4 -22
8 -49 8 -42 0 -56 -6 -98 -39 -26 -21 -73 -64 -103 -95 l-55 -57 -5 172 c-3
103 -9 173 -15 174 -5 1 -29 0 -53 -2z"/>
<path d="M3120 2495 c0 -52 -4 -95 -9 -95 -5 0 -30 10 -56 21 -102 45 -223 4
-273 -94 -49 -93 -22 -227 56 -280 74 -51 163 -57 243 -16 36 18 37 18 42 -1
4 -16 14 -20 51 -20 l46 0 0 290 0 290 -50 0 -50 0 0 -95z m-59 -168 c68 -46
75 -139 16 -203 -27 -30 -39 -35 -77 -35 -65 -1 -96 14 -120 60 -23 47 -25 79
-6 125 30 73 119 99 187 53z"/>
<path d="M758 2563 l-38 -4 0 -275 0 -274 193 0 c182 0 196 1 237 23 52 27 80
75 80 136 0 38 -5 49 -45 89 -36 36 -42 47 -32 56 53 43 64 134 22 184 -41 49
-90 62 -243 66 -75 2 -154 2 -174 -1z m323 -112 c10 -13 19 -33 19 -46 0 -13
-9 -33 -19 -46 -18 -22 -27 -24 -135 -27 l-116 -4 0 77 0 77 116 -4 c108 -3
117 -5 135 -27z m7 -221 c27 -17 32 -25 32 -59 0 -31 -6 -44 -26 -60 -24 -19
-40 -21 -145 -21 l-119 0 0 80 0 80 113 0 c94 0 117 -3 145 -20z"/>
<path d="M3290 2525 l0 -44 93 -3 92 -3 3 -232 2 -233 50 0 50 0 2 233 3 232
93 3 92 3 0 44 0 45 -240 0 -240 0 0 -45z"/>
<path d="M1640 2431 c-14 -4 -39 -15 -57 -24 -32 -17 -32 -17 -16 -49 9 -18
17 -35 19 -37 2 -2 21 4 44 13 22 9 64 16 94 16 42 0 58 -5 80 -25 14 -13 26
-33 26 -45 0 -18 -6 -20 -71 -20 -101 0 -153 -16 -189 -57 -52 -59 -30 -154
43 -184 50 -22 148 -16 191 10 36 23 36 23 36 2 0 -18 6 -21 50 -21 l50 0 0
133 c-1 160 -16 215 -73 260 -33 28 -45 31 -120 34 -45 1 -93 -1 -107 -6z
m191 -269 c-13 -57 -36 -75 -99 -80 -65 -5 -92 11 -92 53 0 39 35 55 121 55
l76 0 -6 -28z"/>
<path d="M2000 2423 c0 -21 60 -195 110 -318 l36 -90 52 -3 c49 -3 53 -1 62
25 37 100 95 243 100 243 3 0 20 -42 39 -93 19 -50 43 -111 53 -134 19 -43 19
-43 73 -43 52 0 54 1 60 32 4 17 22 68 40 112 64 156 103 271 95 279 -4 5 -25
7 -46 5 l-39 -3 -55 -147 c-30 -82 -57 -148 -60 -148 -3 0 -22 46 -44 103 -78
206 -73 198 -120 195 l-41 -3 -37 -95 c-20 -52 -44 -119 -54 -147 -10 -29 -20
-53 -24 -53 -3 0 -26 55 -50 123 -63 177 -63 177 -110 177 -31 0 -40 -4 -40
-17z"/>
<path d="M4006 2433 c-11 -3 -37 -16 -58 -29 l-39 -25 7 26 c6 24 5 25 -45 25
l-51 0 0 -210 0 -210 50 0 50 0 0 115 c0 172 23 215 116 215 l34 0 0 50 c0 53
-7 57 -64 43z"/>
<path d="M4193 2422 c-57 -23 -68 -35 -54 -58 25 -45 24 -45 84 -24 67 24 87
25 131 6 32 -13 63 -65 49 -80 -4 -3 -38 -6 -77 -6 -94 0 -143 -15 -183 -55
-39 -39 -43 -83 -13 -132 31 -51 64 -67 139 -67 51 -1 75 4 104 22 46 27 49
27 45 5 -2 -15 6 -19 45 -21 l47 -3 0 152 c0 146 -1 154 -26 197 -35 59 -85
82 -179 81 -42 0 -87 -7 -112 -17z m217 -256 c0 -58 -74 -102 -146 -86 -55 13
-72 54 -37 92 13 15 31 18 100 18 81 0 83 -1 83 -24z"/>
<path d="M4719 2413 c-112 -57 -150 -191 -87 -306 42 -75 129 -114 227 -102
68 9 100 24 135 66 l27 32 -37 22 -36 22 -31 -29 c-60 -54 -153 -38 -197 35
-53 86 12 197 115 197 37 0 80 -19 97 -44 7 -10 88 21 88 34 0 4 -12 20 -27
35 -69 70 -180 85 -274 38z"/>
</g>
</svg>
